<svg width="1490" height="431" viewBox="0 0 1490 431" fill="none" xmlns="http://www.w3.org/2000/svg">
<g style="mix-blend-mode:overlay">
<path fill-rule="evenodd" clip-rule="evenodd" d="M1077.58 4.78037C1076.98 12.3021 1073.68 19.2978 1068.43 24.2287C1063.17 29.1594 1056.39 31.6213 1049.56 31.0728C1042.73 30.5242 1036.43 27.0101 1032.03 21.3036C1027.64 15.597 1025.51 8.16544 1026.11 0.643706C1026.11 0.643706 1040.32 8.02956 1051.85 2.71204C1063.38 -2.6055 1077.58 4.78037 1077.58 4.78037ZM1084.64 24.7557C1083.01 27.6579 1081.12 30.2597 1079.05 32.4164C1077.78 33.4545 1076.71 34.4373 1075.71 35.3488C1070.49 40.1267 1067.4 42.9466 1049.68 41.5226C1031.2 40.0368 1029.05 37.3461 1023.81 30.7946C1023.07 29.869 1022.27 28.8664 1021.36 27.7793C1013.95 18.9968 1014.2 10.7738 1015.03 0.45752L1022.38 1.04847C1021.19 15.7431 1026.95 23.3104 1026.95 23.3104C1026.95 23.3104 1031.86 33.1348 1050.24 34.6121C1068.62 36.0895 1073.93 27.0868 1073.93 27.0868C1073.93 27.0868 1081.09 17.077 1082.07 4.97554L1089.77 5.59497C1090.75 5.37774 1091.76 5.27641 1092.77 5.2977C1095.34 5.35139 1097.82 6.18126 1099.86 7.66413C1101.89 9.14704 1103.37 11.2039 1104.08 13.5293C1104.78 15.8547 1104.67 18.3247 1103.77 20.5726C1102.86 22.8205 1101.2 24.7265 1099.04 26.0075C1096.89 27.2885 1094.34 27.8764 1091.78 27.6838C1089.23 27.4913 1086.8 26.5283 1084.85 24.9382C1084.78 24.8781 1084.71 24.8173 1084.64 24.7557ZM1089.52 11.8962C1090.46 11.3362 1091.57 11.0485 1092.7 11.0721C1093.94 11.0981 1095.14 11.5005 1096.13 12.2195C1097.12 12.9385 1097.83 13.9358 1098.18 15.0633C1098.52 16.1908 1098.46 17.3885 1098.03 18.4784C1097.59 19.5684 1096.78 20.4925 1095.74 21.1136C1094.69 21.7349 1093.46 22.0198 1092.22 21.9265C1090.98 21.8331 1089.8 21.3662 1088.86 20.5952C1088.25 20.0992 1087.76 19.4945 1087.42 18.8217C1088.28 16.5959 1088.99 14.2716 1089.52 11.8962ZM1015.67 44.0086L1082.78 49.4027C1084.04 49.5042 1084.97 50.7475 1084.86 52.1797C1084.74 53.6119 1083.63 54.6906 1082.36 54.589L1015.25 49.195C1013.98 49.0934 1013.05 47.8501 1013.17 46.4179C1013.28 44.9858 1014.4 43.9071 1015.67 44.0086ZM1079.81 239.934C1079.08 244.419 1076.78 248.461 1073.39 251.171C1070 253.881 1065.81 255.037 1061.74 254.385C1057.67 253.733 1054.06 251.327 1051.69 247.695C1049.32 244.063 1048.4 239.503 1049.12 235.019C1049.12 235.019 1057.29 240.122 1064.46 237.477C1071.63 234.831 1079.81 239.934 1079.81 239.934ZM1083.09 252.253C1081.98 253.918 1080.72 255.39 1079.38 256.586C1078.56 257.149 1077.87 257.688 1077.23 258.187L1077.23 258.187C1073.87 260.807 1071.88 262.353 1061.32 260.661C1050.3 258.895 1049.14 257.179 1046.31 253.001C1045.91 252.411 1045.48 251.771 1044.98 251.075C1040.95 245.456 1041.49 240.533 1042.48 234.383L1046.86 235.085C1045.45 243.846 1048.54 248.658 1048.54 248.658C1048.54 248.658 1051.02 254.785 1061.98 256.541C1072.94 258.297 1076.56 253.146 1076.56 253.146C1076.56 253.146 1081.33 247.478 1082.49 240.264L1087.08 241C1087.68 240.915 1088.29 240.902 1088.9 240.963C1090.43 241.117 1091.88 241.732 1093.03 242.718C1094.18 243.704 1094.97 245.008 1095.29 246.437C1095.6 247.865 1095.42 249.342 1094.76 250.648C1094.11 251.954 1093.03 253.019 1091.67 253.686C1090.32 254.352 1088.76 254.585 1087.24 254.348C1085.71 254.112 1084.3 253.419 1083.21 252.373C1083.17 252.334 1083.13 252.294 1083.09 252.253ZM1086.63 244.768C1087.22 244.477 1087.9 244.357 1088.57 244.424C1089.32 244.499 1090.02 244.797 1090.58 245.275C1091.14 245.753 1091.52 246.385 1091.67 247.078C1091.82 247.771 1091.74 248.487 1091.42 249.12C1091.1 249.753 1090.58 250.27 1089.92 250.593C1089.26 250.916 1088.51 251.029 1087.77 250.914C1087.03 250.8 1086.35 250.464 1085.82 249.957C1085.48 249.63 1085.21 249.244 1085.04 248.824C1085.66 247.53 1086.2 246.169 1086.63 244.768ZM1040.79 260.544L1080.81 266.954C1081.56 267.075 1082.06 267.865 1081.92 268.719C1081.78 269.572 1081.06 270.167 1080.31 270.046L1040.29 263.636C1039.54 263.516 1039.04 262.726 1039.18 261.872C1039.32 261.018 1040.04 260.423 1040.79 260.544ZM675.565 75.3772C676.522 78.9399 676.155 82.7001 674.545 85.8306C672.936 88.961 670.215 91.2054 666.983 92.0699C663.75 92.9344 660.269 92.3482 657.307 90.4403C654.345 88.5324 652.143 85.459 651.187 81.8964C651.187 81.8964 658.941 82.9723 663.376 78.6368C667.811 74.3013 675.565 75.3772 675.565 75.3772ZM682.095 83.4204C681.824 85.0225 681.382 86.5298 680.784 87.8615C680.37 88.5472 680.036 89.1756 679.727 89.7585C678.106 92.8139 677.149 94.6171 668.756 96.8613C660 99.2029 658.568 98.3157 655.082 96.1556C654.59 95.8504 654.056 95.5198 653.455 95.1693C648.601 92.3381 647.364 88.5113 646.052 83.625L649.534 82.6937C651.403 89.6538 655.295 92.1968 655.295 92.1968C655.295 92.1968 659.171 95.9164 667.878 93.5882C676.584 91.2599 677.55 86.2455 677.55 86.2455C677.55 86.2455 679.201 80.4651 677.662 74.7332L681.313 73.7571C681.726 73.4974 682.173 73.2859 682.645 73.1293C683.833 72.7346 685.113 72.7102 686.295 73.0598C687.476 73.4093 688.495 74.1141 689.202 75.0696C689.908 76.0251 690.264 77.1803 690.216 78.3636C690.168 79.547 689.719 80.6956 688.935 81.6386C688.152 82.5817 687.076 83.2692 685.867 83.5989C684.659 83.9286 683.382 83.8829 682.226 83.4688C682.182 83.4531 682.139 83.437 682.095 83.4204ZM682.229 76.7008C682.573 76.2879 683.034 75.9746 683.558 75.8008C684.134 75.6095 684.755 75.5977 685.327 75.7672C685.9 75.9366 686.394 76.2784 686.737 76.7417C687.079 77.2049 687.252 77.765 687.229 78.3388C687.205 78.9126 686.987 79.4695 686.608 79.9268C686.228 80.3841 685.706 80.7174 685.12 80.8773C684.534 81.0372 683.915 81.015 683.354 80.8142C682.994 80.685 682.67 80.4863 682.401 80.2327C682.432 79.0671 682.376 77.881 682.229 76.7008ZM653.502 103.573L685.291 95.0727C685.889 94.9126 686.522 95.3328 686.704 96.0111C686.887 96.6895 686.549 97.3691 685.951 97.5292L654.162 106.03C653.563 106.19 652.931 105.77 652.748 105.091C652.566 104.413 652.904 103.733 653.502 103.573ZM262.877 151.227C264.618 157.711 263.95 164.554 261.021 170.252C258.091 175.949 253.14 180.033 247.257 181.607C241.373 183.18 235.039 182.113 229.648 178.641C224.257 175.169 220.25 169.575 218.509 163.092C218.509 163.092 232.622 165.05 240.693 157.159C248.765 149.269 262.877 151.227 262.877 151.227ZM274.761 165.865C274.268 168.781 273.463 171.524 272.374 173.948C271.62 175.196 271.014 176.339 270.451 177.4L270.451 177.4C267.5 182.961 265.759 186.243 250.485 190.327C234.549 194.588 231.943 192.974 225.599 189.042L225.599 189.042C224.703 188.487 223.732 187.885 222.638 187.248C213.803 182.095 211.552 175.13 209.164 166.238L215.502 164.543C218.903 177.21 225.986 181.838 225.986 181.838C225.986 181.838 233.04 188.607 248.886 184.37C264.731 180.133 266.489 171.007 266.489 171.007C266.489 171.007 269.493 160.487 266.693 150.055L273.336 148.279C274.089 147.806 274.903 147.421 275.761 147.136C277.924 146.418 280.254 146.373 282.403 147.01C284.553 147.646 286.408 148.928 287.694 150.667C288.979 152.406 289.627 154.509 289.539 156.662C289.452 158.816 288.635 160.906 287.209 162.623C285.784 164.339 283.826 165.59 281.626 166.19C279.426 166.79 277.102 166.707 274.998 165.953C274.919 165.925 274.84 165.896 274.761 165.865ZM275.004 153.636C275.63 152.885 276.47 152.314 277.422 151.998C278.471 151.65 279.601 151.628 280.643 151.937C281.685 152.245 282.585 152.867 283.208 153.71C283.832 154.554 284.145 155.573 284.103 156.617C284.061 157.661 283.664 158.675 282.973 159.507C282.282 160.339 281.333 160.946 280.266 161.237C279.199 161.528 278.072 161.488 277.052 161.122C276.396 160.887 275.807 160.525 275.318 160.064C275.373 157.943 275.272 155.784 275.004 153.636ZM222.724 202.542L280.577 187.072C281.666 186.78 282.818 187.545 283.149 188.78C283.481 190.014 282.866 191.251 281.777 191.542L223.924 207.013C222.835 207.304 221.683 206.54 221.352 205.305C221.02 204.07 221.634 202.833 222.724 202.542ZM135.737 384.95C134.965 391.618 131.82 397.736 126.996 401.958C122.171 406.179 116.061 408.159 110.011 407.461C103.96 406.763 98.4637 403.444 94.7313 398.236C90.9989 393.027 89.336 386.355 90.1083 379.686C90.1083 379.686 102.508 386.69 112.923 382.318C123.337 377.946 135.737 384.95 135.737 384.95ZM141.389 402.926C139.856 405.456 138.095 407.711 136.189 409.564C135.028 410.448 134.042 411.288 133.128 412.068L133.128 412.068C128.334 416.155 125.504 418.566 109.796 416.754C93.4075 414.864 91.5801 412.405 87.1307 406.42C86.5022 405.574 85.8212 404.658 85.0395 403.663C78.7246 395.627 79.1995 388.325 80.2588 379.179L86.7772 379.931C85.2683 392.958 90.1473 399.863 90.1473 399.863C90.1473 399.863 94.21 408.748 110.506 410.628C126.802 412.508 131.802 404.668 131.802 404.668C131.802 404.668 138.475 395.99 139.717 385.262L146.55 386.05C147.424 385.887 148.322 385.828 149.226 385.878C151.502 386.005 153.684 386.819 155.449 388.201C157.213 389.582 158.465 391.456 159.019 393.545C159.573 395.634 159.399 397.826 158.524 399.797C157.649 401.767 156.118 403.411 154.16 404.483C152.201 405.555 149.919 405.999 147.652 405.749C145.386 405.499 143.255 404.568 141.577 403.095C141.514 403.039 141.451 402.983 141.389 402.926ZM146.125 391.644C146.984 391.175 147.975 390.954 148.977 391.009C150.081 391.071 151.139 391.466 151.995 392.135C152.85 392.805 153.457 393.714 153.726 394.727C153.995 395.74 153.91 396.803 153.486 397.758C153.061 398.713 152.319 399.51 151.37 400.03C150.42 400.55 149.314 400.765 148.215 400.644C147.116 400.523 146.083 400.072 145.269 399.357C144.745 398.898 144.331 398.345 144.047 397.736C144.88 395.784 145.582 393.74 146.125 391.644ZM79.4788 417.916L138.977 424.78C140.097 424.909 140.886 426.043 140.739 427.313C140.592 428.582 139.564 429.507 138.444 429.378L78.9462 422.514C77.826 422.385 77.0371 421.251 77.1842 419.981C77.3312 418.711 78.3586 417.787 79.4788 417.916ZM58.5706 19.8363C57.7983 26.5045 54.6539 32.6222 49.8292 36.8437C45.0046 41.0652 38.8947 43.0446 32.844 42.3466C26.7933 41.6486 21.2971 38.3302 17.5647 33.1216C13.8324 27.9128 12.1694 21.2405 12.9418 14.5724C12.9418 14.5724 25.3416 21.5763 35.7562 17.2044C46.1709 12.8324 58.5706 19.8363 58.5706 19.8363ZM64.2228 37.8119C62.689 40.3419 60.9287 42.5966 59.0224 44.4502C57.8618 45.334 56.8758 46.1745 55.9612 46.954L55.9612 46.9541C51.1671 51.0406 48.3376 53.4524 32.6299 51.6403C16.241 49.7496 14.4136 47.2913 9.9642 41.3058C9.33561 40.4602 8.65469 39.5441 7.87298 38.5494C1.55806 30.5134 2.03296 23.2107 3.09228 14.0652L9.61069 14.8172C8.10178 27.8442 12.9808 34.7489 12.9808 34.7489C12.9808 34.7489 17.0435 43.6341 33.3395 45.5141C49.6355 47.3941 54.6354 39.5543 54.6354 39.5543C54.6354 39.5543 61.3082 30.8762 62.5508 20.148L69.3834 20.9363C70.2571 20.7732 71.156 20.7142 72.0591 20.7644C74.3355 20.8911 76.5178 21.7055 78.282 23.0865C80.0464 24.4676 81.2984 26.3417 81.8524 28.4307C82.4064 30.5197 82.2329 32.7122 81.3575 34.6826C80.482 36.6531 78.9514 38.2965 76.993 39.3688C75.0345 40.4411 72.7525 40.8853 70.4859 40.6353C68.2193 40.3853 66.0887 39.4543 64.4106 37.9808C64.3473 37.9251 64.2847 37.8688 64.2228 37.8119ZM68.9584 26.5301C69.8176 26.0614 70.8088 25.8397 71.8109 25.8955C72.9147 25.9569 73.9727 26.3517 74.8282 27.0214C75.6837 27.691 76.2908 28.5997 76.5594 29.6126C76.828 30.6255 76.7438 31.6886 76.3194 32.644C75.8948 33.5994 75.1527 34.3962 74.2032 34.9161C73.2536 35.4362 72.1471 35.6515 71.0481 35.5303C69.949 35.409 68.916 34.9577 68.1024 34.2432C67.5789 33.7836 67.1642 33.2309 66.8801 32.6223C67.7138 30.6701 68.4153 28.6256 68.9584 26.5301ZM2.31225 52.802L61.8101 59.6659C62.9303 59.7951 63.7192 60.9291 63.5721 62.1988C63.4251 63.4684 62.3977 64.3929 61.2775 64.2637L1.77969 57.3998C0.659474 57.2705 -0.129426 56.1365 0.0176349 54.8669C0.164696 53.5972 1.19203 52.6728 2.31225 52.802ZM1002.83 398.264C1002.06 403.076 999.58 407.414 995.945 410.322C992.31 413.23 987.814 414.471 983.447 413.772C979.08 413.072 975.199 410.49 972.659 406.592C970.118 402.694 969.126 397.801 969.9 392.988C969.9 392.988 978.67 398.465 986.366 395.626C994.061 392.787 1002.83 398.264 1002.83 398.264ZM1006.36 411.484C1005.16 413.27 1003.81 414.85 1002.37 416.134C1001.5 416.738 1000.76 417.316 1000.07 417.852L1000.07 417.852C996.46 420.664 994.33 422.323 982.994 420.507C971.166 418.612 969.919 416.77 966.883 412.286C966.454 411.653 965.989 410.967 965.454 410.22C961.131 404.189 961.709 398.906 962.771 392.306L967.476 393.06C965.963 402.461 969.281 407.626 969.281 407.626C969.281 407.626 971.944 414.201 983.705 416.085C995.466 417.97 999.344 412.442 999.344 412.442C999.344 412.442 1004.46 406.36 1005.71 398.617L1010.64 399.407C1011.28 399.317 1011.93 399.302 1012.59 399.368C1014.23 399.532 1015.79 400.193 1017.03 401.251C1018.26 402.309 1019.11 403.709 1019.44 405.242C1019.78 406.775 1019.58 408.36 1018.89 409.761C1018.19 411.163 1017.02 412.306 1015.57 413.021C1014.11 413.737 1012.44 413.986 1010.81 413.732C1009.17 413.479 1007.66 412.735 1006.49 411.613C1006.44 411.57 1006.4 411.527 1006.36 411.484ZM1010.15 403.451C1010.79 403.139 1011.52 403.01 1012.24 403.082C1013.04 403.162 1013.8 403.482 1014.39 403.995C1014.99 404.508 1015.4 405.187 1015.57 405.93C1015.73 406.673 1015.63 407.442 1015.3 408.121C1014.96 408.801 1014.39 409.355 1013.69 409.702C1012.98 410.049 1012.17 410.17 1011.38 410.047C1010.59 409.924 1009.85 409.563 1009.28 409.019C1008.92 408.669 1008.64 408.255 1008.45 407.804C1009.12 406.415 1009.69 404.954 1010.15 403.451ZM960.963 420.382L1003.9 427.26C1004.71 427.39 1005.25 428.238 1005.1 429.154C1004.95 430.07 1004.18 430.708 1003.37 430.579L960.43 423.7C959.621 423.57 959.085 422.723 959.233 421.806C959.38 420.89 960.155 420.252 960.963 420.382ZM1474.34 212.04C1472.01 216.731 1468.08 220.391 1463.42 222.216C1458.76 224.042 1453.75 223.882 1449.49 221.772C1445.23 219.662 1442.08 215.775 1440.72 210.966C1439.36 206.157 1439.91 200.82 1442.24 196.129C1442.24 196.129 1449.49 204.544 1458.29 204.084C1467.1 203.624 1474.34 212.04 1474.34 212.04ZM1473.73 226.727C1471.93 228.179 1470.04 229.37 1468.15 230.227C1467.06 230.57 1466.12 230.926 1465.24 231.257V231.257C1460.63 232.991 1457.92 234.015 1446.87 228.538C1435.34 222.823 1434.65 220.536 1432.97 214.967V214.967V214.967C1432.73 214.181 1432.47 213.328 1432.16 212.392C1429.66 204.826 1431.94 199.59 1435.15 193.156L1439.73 195.429C1435.17 204.594 1436.92 210.95 1436.92 210.95C1436.92 210.95 1437.55 218.545 1449.01 224.228C1460.48 229.91 1466.23 225.475 1466.23 225.475C1466.23 225.475 1473.42 220.866 1477.18 213.319L1481.99 215.702C1482.67 215.813 1483.35 216.007 1484 216.282C1485.63 216.976 1487.02 218.15 1487.95 219.629C1488.88 221.109 1489.3 222.815 1489.15 224.495C1489.01 226.175 1488.3 227.738 1487.13 228.954C1485.97 230.169 1484.41 230.971 1482.69 231.242C1480.97 231.512 1479.17 231.235 1477.57 230.453C1475.98 229.671 1474.66 228.425 1473.82 226.901C1473.79 226.843 1473.76 226.785 1473.73 226.727ZM1480.19 219.696C1480.95 219.579 1481.73 219.677 1482.45 219.983C1483.25 220.319 1483.92 220.889 1484.37 221.606C1484.82 222.323 1485.03 223.151 1484.95 223.965C1484.88 224.78 1484.54 225.538 1483.98 226.127C1483.41 226.716 1482.65 227.105 1481.82 227.236C1480.98 227.367 1480.12 227.233 1479.34 226.854C1478.57 226.475 1477.93 225.871 1477.52 225.132C1477.26 224.656 1477.1 224.141 1477.05 223.619C1478.18 222.406 1479.24 221.091 1480.19 219.696ZM1424.3 221.386L1466.16 242.133C1466.95 242.523 1467.23 243.564 1466.78 244.457C1466.34 245.35 1465.34 245.758 1464.55 245.367L1422.7 224.621C1421.91 224.23 1421.63 223.189 1422.07 222.296C1422.52 221.403 1423.52 220.996 1424.3 221.386ZM1318.3 75.3079C1319.22 80.4627 1318.26 85.7403 1315.61 89.9796C1312.96 94.2188 1308.84 97.0726 1304.16 97.913C1299.49 98.7534 1294.63 97.5116 1290.67 94.4609C1286.7 91.41 1283.95 86.8002 1283.02 81.6453C1283.02 81.6453 1293.87 84.0863 1300.66 78.4766C1307.45 72.8668 1318.3 75.3079 1318.3 75.3079ZM1326.58 87.4633C1326.01 89.6984 1325.2 91.7788 1324.19 93.5925C1323.53 94.5138 1322.98 95.3636 1322.47 96.1518C1319.82 100.283 1318.25 102.722 1306.1 104.903C1293.43 107.18 1291.51 105.755 1286.84 102.285C1286.18 101.795 1285.46 101.264 1284.65 100.697C1278.12 96.1151 1276.82 90.5532 1275.55 83.4832L1280.59 82.5779C1282.4 92.6485 1287.61 96.7081 1287.61 96.7081C1287.61 96.7081 1292.65 102.431 1305.25 100.168C1317.85 97.9042 1319.81 90.9227 1319.81 90.9227C1319.81 90.9227 1322.83 82.9384 1321.34 74.6449L1326.62 73.6959C1327.24 73.3775 1327.89 73.1311 1328.58 72.9654C1330.31 72.5477 1332.12 72.6648 1333.75 73.2993C1335.38 73.9339 1336.74 75.0521 1337.63 76.4878C1338.51 77.9236 1338.88 79.6004 1338.67 81.2694C1338.46 82.9383 1337.69 84.5104 1336.47 85.7522C1335.25 86.9939 1333.65 87.8393 1331.9 88.1627C1330.15 88.4861 1328.34 88.2702 1326.76 87.5472C1326.7 87.5199 1326.64 87.4919 1326.58 87.4633ZM1327.57 77.9701C1328.1 77.4267 1328.79 77.0379 1329.55 76.8541C1330.39 76.6515 1331.27 76.7083 1332.06 77.016C1332.85 77.3237 1333.51 77.8658 1333.94 78.562C1334.37 79.2582 1334.55 80.0712 1334.45 80.8804C1334.35 81.6896 1333.97 82.4519 1333.38 83.0539C1332.79 83.6562 1332.01 84.066 1331.16 84.2228C1330.31 84.3796 1329.44 84.275 1328.67 83.9244C1328.18 83.6989 1327.74 83.3794 1327.39 82.9887C1327.57 81.3428 1327.64 79.6576 1327.57 77.9701ZM1283.72 112.595L1329.72 104.331C1330.58 104.175 1331.43 104.845 1331.6 105.826C1331.78 106.808 1331.22 107.73 1330.36 107.885L1284.36 116.149C1283.5 116.305 1282.65 115.635 1282.47 114.654C1282.3 113.672 1282.85 112.75 1283.72 112.595ZM1375.88 385.789C1375.67 391.022 1373.57 395.964 1370.07 399.529C1366.56 403.093 1361.92 404.987 1357.17 404.794C1352.42 404.602 1347.95 402.338 1344.74 398.501C1341.54 394.664 1339.85 389.569 1340.07 384.335C1340.07 384.335 1350.12 389.067 1357.97 385.062C1365.82 381.057 1375.88 385.789 1375.88 385.789ZM1381.32 399.449C1380.28 401.506 1379.04 403.362 1377.66 404.915C1376.81 405.67 1376.09 406.381 1375.42 407.041C1371.93 410.498 1369.87 412.539 1357.54 412.039C1344.68 411.517 1343.11 409.71 1339.3 405.31C1338.77 404.688 1338.18 404.015 1337.52 403.286C1332.14 397.399 1332.08 391.689 1332.37 384.511L1337.49 384.719C1337.07 394.943 1341.27 400.033 1341.27 400.033C1341.27 400.033 1344.95 406.711 1357.74 407.23C1370.53 407.75 1373.96 401.36 1373.96 401.36C1373.96 401.36 1378.65 394.22 1378.99 385.801L1384.36 386.018C1385.03 385.841 1385.72 385.743 1386.43 385.73C1388.21 385.696 1389.95 386.204 1391.41 387.176C1392.86 388.148 1393.94 389.534 1394.49 391.128C1395.05 392.721 1395.04 394.437 1394.47 396.021C1393.91 397.605 1392.81 398.973 1391.35 399.92C1389.89 400.868 1388.14 401.346 1386.36 401.283C1384.58 401.219 1382.87 400.618 1381.48 399.569C1381.43 399.529 1381.37 399.489 1381.32 399.449ZM1384.35 390.396C1384.99 389.981 1385.75 389.751 1386.53 389.737C1387.4 389.72 1388.24 389.966 1388.95 390.438C1389.65 390.909 1390.18 391.581 1390.44 392.354C1390.71 393.127 1390.71 393.959 1390.43 394.727C1390.16 395.495 1389.63 396.158 1388.92 396.617C1388.21 397.077 1387.36 397.308 1386.5 397.278C1385.64 397.247 1384.81 396.956 1384.13 396.447C1383.7 396.12 1383.34 395.714 1383.09 395.256C1383.62 393.689 1384.05 392.058 1384.35 390.396ZM1334.02 414.698L1380.72 416.593C1381.59 416.629 1382.27 417.466 1382.23 418.462C1382.19 419.459 1381.45 420.238 1380.57 420.202L1333.87 418.307C1332.99 418.271 1332.31 417.435 1332.35 416.438C1332.39 415.442 1333.14 414.663 1334.02 414.698ZM667.447 376.353C666.064 383.915 662.011 390.671 656.181 395.134C650.351 399.597 643.221 401.402 636.359 400.152C629.497 398.902 623.466 394.699 619.592 388.468C615.718 382.237 614.319 374.488 615.702 366.926C615.702 366.926 629.345 375.857 641.574 371.64C653.803 367.423 667.447 376.353 667.447 376.353ZM672.556 397.316C670.613 400.093 668.432 402.538 666.115 404.513C664.722 405.436 663.533 406.323 662.429 407.145L662.429 407.145C656.644 411.457 653.23 414.001 635.417 410.756C616.831 407.37 614.927 404.424 610.293 397.252L610.293 397.252C609.638 396.238 608.928 395.141 608.11 393.946C601.497 384.291 602.588 375.982 604.485 365.61L611.877 366.957C609.175 381.73 614.232 389.985 614.232 389.985C614.232 389.985 618.207 400.442 636.687 403.808C655.168 407.175 661.47 398.591 661.47 398.591C661.47 398.591 669.746 389.173 671.971 377.007L679.72 378.419C680.73 378.298 681.762 378.297 682.79 378.422C685.382 378.737 687.815 379.831 689.727 381.541C691.639 383.251 692.929 385.486 693.405 387.915C693.882 390.343 693.519 392.836 692.37 395.022C691.222 397.208 689.35 398.972 687.031 400.05C684.713 401.129 682.072 401.466 679.501 401.011C676.929 400.556 674.565 399.333 672.758 397.524C672.69 397.455 672.622 397.386 672.556 397.316ZM678.814 384.779C679.831 384.308 680.98 384.128 682.121 384.267C683.378 384.42 684.557 384.95 685.485 385.779C686.412 386.608 687.037 387.692 687.268 388.87C687.499 390.047 687.323 391.256 686.767 392.316C686.21 393.376 685.302 394.231 684.178 394.754C683.054 395.277 681.773 395.44 680.526 395.22C679.28 394.999 678.133 394.406 677.257 393.529C676.693 392.964 676.261 392.302 675.982 391.585C677.081 389.417 678.036 387.133 678.814 384.779ZM600.686 409.816L668.158 422.109C669.428 422.34 670.245 423.695 669.981 425.135C669.718 426.574 668.475 427.554 667.204 427.323L599.732 415.03C598.462 414.799 597.645 413.444 597.909 412.004C598.172 410.564 599.415 409.585 600.686 409.816Z" fill="black"/>
</g>
</svg>
