<svg width="26" height="24" viewBox="0 0 26 24" fill="none" xmlns="http://www.w3.org/2000/svg">
<path d="M4.66663 5.33333H23.0533C23.4259 5.33335 23.7943 5.41143 24.1348 5.56254C24.4754 5.71365 24.7804 5.93444 25.0304 6.21068C25.2804 6.48692 25.4697 6.81248 25.5862 7.16637C25.7027 7.52026 25.7437 7.89462 25.7066 8.26533L24.9066 16.2653C24.8408 16.9233 24.5329 17.5334 24.0426 17.9772C23.5523 18.4209 22.9146 18.6666 22.2533 18.6667H9.51996C8.90326 18.6669 8.30553 18.4534 7.82855 18.0625C7.35158 17.6716 7.02483 17.1274 6.90396 16.5227L4.66663 5.33333Z" stroke="#1D1D1D" stroke-width="2" stroke-linejoin="round"/>
<path d="M19.3333 24H22M4.66663 5.33333L3.58663 1.00933C3.5144 0.721005 3.3479 0.465078 3.11357 0.282207C2.87924 0.0993362 2.59053 7.81391e-06 2.29329 0H0.666626L4.66663 5.33333ZM8.66663 24H11.3333H8.66663Z" stroke="#1D1D1D" stroke-width="2" stroke-linecap="round" stroke-linejoin="round"/>
</svg>
